<?xml version="1.0" encoding="UTF-8" standalone="no"?>
<svg
   width="4316"
   height="3050"
   viewBox="0 0 4316 3050"
   fill="none"
   version="1.1"
   id="svg34"
   sodipodi:docname="logo copy.svg"
   inkscape:version="1.1.1 (3bf5ae0d25, 2021-09-20, custom)"
   xmlns:inkscape="http://www.inkscape.org/namespaces/inkscape"
   xmlns:sodipodi="http://sodipodi.sourceforge.net/DTD/sodipodi-0.dtd"
   xmlns="http://www.w3.org/2000/svg"
   xmlns:svg="http://www.w3.org/2000/svg">
  <defs
     id="defs38">
    <linearGradient
       id="linearGradient2870"
       inkscape:swatch="solid">
      <stop
         style="stop-color:#e7e7e7;stop-opacity:1;"
         offset="0"
         id="stop2868" />
    </linearGradient>
  </defs>
  <sodipodi:namedview
     id="namedview36"
     pagecolor="#ffffff"
     bordercolor="#666666"
     borderopacity="1.0"
     inkscape:pageshadow="2"
     inkscape:pageopacity="0.0"
     inkscape:pagecheckerboard="0"
     showgrid="false"
     inkscape:zoom="0.21245902"
     inkscape:cx="2158.0632"
     inkscape:cy="1525"
     inkscape:window-width="1920"
     inkscape:window-height="1006"
     inkscape:window-x="0"
     inkscape:window-y="0"
     inkscape:window-maximized="1"
     inkscape:current-layer="svg34" />
  <path
     d="M711.37 3049.16C319.48 3049.16 0.800293 2730.48 0.800293 2338.59C0.800293 1946.7 319.48 1628.02 711.37 1628.02C1103.26 1628.02 1421.94 1946.7 1421.94 2338.59C1421.94 2732.63 1103.26 3049.16 711.37 3049.16Z"
     fill="#00093C"
     id="path2"
     style="fill:#00093c;fill-opacity:1" />
  <path
     d="M2390.9 79.8306L1620.04 1339.48C1598.51 1376.08 1622.2 1421.3 1663.11 1421.3H2433.97H3204.83C3245.74 1421.3 3269.42 1373.93 3247.89 1339.48L2477.03 79.8306C2455.5 47.532 2410.28 47.532 2390.9 79.8306Z"
     fill="#00093C"
     id="path4"
     style="fill:#00093c;fill-opacity:1" />
  <path
     d="M1406.86 293.006L1129.09 15.2377C1109.71 -4.14142 1075.26 -4.14142 1055.88 15.2377L750.119 320.998C730.74 340.377 696.289 340.377 676.909 320.998L371.149 15.2377C351.77 -4.14142 317.318 -4.14142 297.939 15.2377L20.171 293.006C0.791866 312.385 0.791866 346.837 20.171 366.216L325.931 671.976C345.31 691.355 345.31 725.807 325.931 745.186L20.171 1050.95C0.791866 1070.33 0.791866 1104.78 20.171 1124.16L297.939 1401.92C317.318 1421.3 351.77 1421.3 371.149 1401.92L676.909 1096.16C696.289 1076.79 730.74 1076.79 750.119 1096.16L1055.88 1401.92C1075.26 1421.3 1109.71 1421.3 1129.09 1401.92L1406.86 1124.16C1426.24 1104.78 1426.24 1070.33 1406.86 1050.95L1101.1 745.186C1081.72 725.807 1081.72 691.355 1101.1 671.976L1406.86 366.216C1428.39 346.837 1428.39 314.538 1406.86 293.006Z"
     fill="#00093C"
     id="path6"
     style="fill:#00093c;fill-opacity:1" />
  <path
     d="M1755.68 2118.95V2209.38H1912.87V2271.83H1755.68V2394.56H1678.16V2056.5H1932.24V2118.95H1755.68Z"
     fill="black"
     id="path8"
     style="fill:#00093c;fill-opacity:1" />
  <path
     d="M2037.77 2360.11C2011.93 2334.27 1996.86 2295.51 1996.86 2245.99V2056.5H2074.38V2241.68C2074.38 2301.97 2100.21 2332.12 2149.74 2332.12C2173.42 2332.12 2192.8 2325.66 2205.72 2310.58C2218.64 2295.51 2225.1 2273.98 2225.1 2241.68V2056.5H2302.62V2245.99C2302.62 2295.51 2289.7 2334.27 2261.71 2360.11C2235.87 2385.95 2197.11 2401.02 2149.74 2401.02C2102.37 2401.02 2063.61 2385.95 2037.77 2360.11Z"
     fill="black"
     id="path10"
     style="fill:#00093c;fill-opacity:1" />
  <path
     d="M2457.64 2121.1H2349.98V2056.5H2642.82V2121.1H2535.16V2394.56H2457.64V2121.1Z"
     fill="black"
     id="path12"
     style="fill:#00093c;fill-opacity:1" />
  <path
     d="M2731.1 2360.11C2705.26 2334.27 2690.19 2295.51 2690.19 2245.99V2056.5H2767.7V2241.68C2767.7 2301.97 2793.54 2332.12 2843.07 2332.12C2866.75 2332.12 2886.13 2325.66 2899.05 2310.58C2911.97 2295.51 2918.43 2273.98 2918.43 2241.68V2056.5H2995.95V2245.99C2995.95 2295.51 2983.03 2334.27 2955.03 2360.11C2929.19 2385.95 2890.44 2401.02 2843.07 2401.02C2795.69 2401.02 2759.09 2385.95 2731.1 2360.11Z"
     fill="black"
     id="path14"
     style="fill:#00093c;fill-opacity:1" />
  <path
     d="M3301.71 2394.57L3237.12 2299.83H3232.81H3163.91V2394.57H3086.39V2058.67H3232.81C3262.96 2058.67 3288.79 2062.97 3310.33 2073.74C3331.86 2084.51 3349.09 2097.43 3362 2116.8C3372.77 2134.03 3379.23 2157.72 3379.23 2181.4C3379.23 2207.24 3372.77 2228.77 3362 2246C3349.09 2263.23 3331.86 2278.3 3310.33 2286.91L3385.69 2394.57H3301.71ZM3282.34 2136.18C3269.42 2125.42 3252.19 2121.11 3228.5 2121.11H3163.91V2239.54H3228.5C3252.19 2239.54 3269.42 2235.23 3282.34 2224.47C3295.25 2213.7 3299.56 2200.78 3299.56 2181.4C3301.71 2159.87 3295.25 2146.95 3282.34 2136.18Z"
     fill="black"
     id="path16"
     style="fill:#00093c;fill-opacity:1" />
  <path
     d="M3717.29 2332.12V2394.56H3456.75V2056.5H3710.83V2118.95H3534.27V2192.16H3689.3V2254.6H3534.27V2332.12H3717.29Z"
     fill="black"
     id="path18"
     style="fill:#00093c;fill-opacity:1" />
  <path
     d="M1899.95 2945.8H1742.77L1712.62 3019.01H1632.95L1783.68 2683.11H1861.2L2011.92 3019.01H1930.1L1899.95 2945.8ZM1876.27 2887.67L1822.44 2758.47L1768.61 2887.67H1876.27Z"
     fill="black"
     id="path20"
     style="fill:#00093c;fill-opacity:1" />
  <path
     d="M2123.9 3001.78C2095.9 2986.71 2074.37 2965.17 2059.3 2939.33C2044.23 2913.5 2035.61 2883.35 2035.61 2848.9C2035.61 2816.6 2044.23 2786.45 2059.3 2758.46C2074.37 2732.62 2098.06 2711.09 2123.9 2696.02C2151.89 2680.95 2182.03 2674.49 2216.48 2674.49C2246.63 2674.49 2272.47 2678.79 2296.15 2689.56C2319.84 2700.32 2339.22 2715.4 2356.45 2734.78L2306.92 2779.99C2283.23 2754.16 2255.24 2741.24 2222.94 2741.24C2201.41 2741.24 2184.19 2745.54 2166.96 2754.16C2149.73 2762.77 2136.81 2775.69 2128.2 2792.91C2119.59 2810.14 2115.28 2827.37 2115.28 2848.9C2115.28 2870.43 2119.59 2887.66 2128.2 2904.88C2136.81 2922.11 2149.73 2935.03 2166.96 2943.64C2184.19 2952.25 2201.41 2956.56 2222.94 2956.56C2257.4 2956.56 2285.39 2943.64 2306.92 2915.65L2356.45 2960.87C2341.37 2980.25 2319.84 2995.32 2296.15 3006.08C2272.47 3016.85 2246.63 3021.16 2216.48 3021.16C2184.19 3023.31 2151.89 3016.85 2123.9 3001.78Z"
     fill="black"
     id="path22"
     style="fill:#00093c;fill-opacity:1" />
  <path
     d="M2638.51 2945.8H2481.33L2451.18 3019.01H2371.51L2522.24 2683.11H2599.75L2750.48 3019.01H2668.66L2638.51 2945.8ZM2614.83 2887.67L2561 2758.47L2507.16 2887.67H2614.83Z"
     fill="black"
     id="path24"
     style="fill:#00093c;fill-opacity:1" />
  <path
     d="M2800.01 2680.94H2952.89C2989.5 2680.94 3021.8 2687.4 3049.79 2702.47C3077.78 2715.39 3099.31 2736.93 3114.39 2760.61C3129.46 2786.45 3138.07 2814.44 3138.07 2848.89C3138.07 2883.35 3129.46 2911.34 3114.39 2937.18C3099.31 2963.02 3077.78 2982.39 3049.79 2995.31C3021.8 3008.23 2989.5 3016.85 2952.89 3016.85H2800.01V2680.94ZM2948.59 2954.4C2983.04 2954.4 3008.88 2945.79 3028.26 2926.41C3047.64 2907.03 3058.4 2881.19 3058.4 2851.05C3058.4 2818.75 3047.64 2792.91 3028.26 2775.68C3008.88 2756.31 2980.89 2747.69 2948.59 2747.69H2877.53V2956.56H2948.59V2954.4Z"
     fill="black"
     id="path26"
     style="fill:#00093c;fill-opacity:1" />
  <path
     d="M3471.82 2956.56V3019H3211.27V2680.94H3465.36V2743.39H3288.79V2816.6H3445.98V2876.89H3288.79V2956.56H3471.82Z"
     fill="black"
     id="path28"
     style="fill:#00093c;fill-opacity:1" />
  <path
     d="M3855.1 3019V2816.6L3756.05 2982.39H3721.6L3622.55 2820.9V3019H3549.34V2680.94H3613.93L3738.82 2889.81L3863.71 2680.94H3928.31V3019H3855.1Z"
     fill="black"
     id="path30"
     style="fill:#00093c;fill-opacity:1" />
  <path
     d="M4184.54 2898.42V3019H4107.02V2898.42L3975.67 2680.94H4059.65L4150.09 2831.67L4238.37 2680.94H4315.89L4184.54 2898.42Z"
     fill="black"
     id="path32"
     style="fill:#00093c;fill-opacity:1" />
</svg>
